# xmcd
#
# Track frame offsets:
#  150
#  24805
#  40877
#  55770
#  69342
#  85117
#  99315
#  116307
#  126815
#  142425
#  160250
#  174377
#  188600
#  200997
#  213100
#
# Disc length: 2999 seconds
#
# Revision: 3
# Processed by: cddbd v1.5.1PL2 Copyright (c) Steve Scherf et al.
# Submitted via: Collectorz.com_Music_Collector 6.11
#
DISCID=c70bb50f
DTITLE=Various Artist - Gospel, Blues And Street Songs
DYEAR=1991
DGENRE=Blues
TTITLE0=Pink Anderson - John Henry
TTITLE1=Pink Anderson - Every Day In The Week
TTITLE2=Pink Anderson - The Ship Titanic
TTITLE3=Pink Anderson - Greasy Greens
TTITLE4=Pink Anderson - Wreck Of The Old 97
TTITLE5=Pink Anderson - I've Got Mine
TTITLE6=Jimmie Rodgers - He's In The Jailhouse Now
TTITLE7=Traditional - Blow, Gabriel
TTITLE8=Traditional - Twelve Gates To The City
TTITLE9=Traditional - Samson And Delilah
TTITLE10=Reverend Gary Davis - Oh Lord, Search My Heart
TTITLE11=Rev. Gary Davis - Get Right Church
TTITLE12=Reverend Gary Davis - You Got To Go Down
TTITLE13=Reverend Gary Davis - Keep Your Lamp Trimmed And Burning
TTITLE14=Reverend Gary Davis - There Was A Time That I Was Blind
EXTD=
EXTT0=
EXTT1=
EXTT2=
EXTT3=
EXTT4=
EXTT5=
EXTT6=
EXTT7=
EXTT8=
EXTT9=
EXTT10=
EXTT11=
EXTT12=
EXTT13=
EXTT14=
PLAYORDER=
